<?xml version="1.0" standalone="no"?><!DOCTYPE svg PUBLIC "-//W3C//DTD SVG 1.1//EN" "http://www.w3.org/Graphics/SVG/1.1/DTD/svg11.dtd"><svg xmlns:xlink="http://www.w3.org/1999/xlink" height="400" width="600" xmlns="http://www.w3.org/2000/svg" style="font-family:'lucida grande', 'lucida sans unicode', arial, helvetica, sans-serif;font-size:12px;" version="1.1"><desc>Created with Highcharts 4.0.4</desc><defs><clipPath id="highcharts-36"><rect height="338" width="580" y="0" x="0"></rect></clipPath></defs><g  class="highcharts-series-group"><g transform="translate(10,10) scale(1 1)"  visibility="visible" class="highcharts-series"><path transform="translate(0,0)" stroke-linejoin="round" stroke-width="1" stroke="#FFFFFF" d="M 295.9841134901118 91.0000016178282 A 78 78 0 0 1 338.4712253807506 234.42319936121658 L 296 169 A 0 0 0 0 0 296 169 Z" fill="#50B432"></path><path transform="translate(0,0)" stroke-linejoin="round" stroke-width="1" stroke="#FFFFFF" d="M 338.40578095668235 234.46563786792183 A 78 78 0 1 1 295.89165956483043 91.00007524138175 L 296 169 A 0 0 0 1 0 296 169 Z" fill="#ED561B"></path></g><g transform="translate(10,10) scale(1 1)"  visibility="visible" class="highcharts-markers"></g></g><g opacity="1" transform="translate(10,10) scale(1 1)"  visibility="visible" class="highcharts-data-labels"><path stroke-width="1" stroke="#50B432" d="M 404.56383467048033 138.364527939896 C 399.56383467048033 138.364527939896 391.892439509704 140.63382216657038 381.34427116363656 143.75410172824763 L 370.79610281756914 146.87438128992488" fill="none"></path><path stroke-width="1" stroke="#ED561B" d="M 187.43616532951967 199.63547206010406 C 192.43616532951967 199.63547206010406 200.107560490296 197.3661778334297 210.65572883636344 194.24589827175242 L 221.20389718243086 191.12561871007514" fill="none"></path><g transform="translate(410,128)" style="cursor:pointer;" ><text y="14" style="font-size:10px;font-family:'arial', sans-serif;color:#000;fill:#000;"  x="3"><tspan>Protected : 58 requests per second</tspan></text></g><g transform="translate(3,190)" style="cursor:pointer;" ><text y="14" style="font-size:10px;font-family:'arial', sans-serif;color:#000;fill:#000;"  x="3"><tspan>Unprotected : 84 requests per second</tspan></text></g></g><g transform="translate(206,368)"  class="highcharts-legend"><g ><g><g transform="translate(8,3)"  class="highcharts-legend-item"><text y="15"  text-anchor="start" style="color:#333;font-size:9pt;font-weight:normal;cursor:pointer;font-family:'lucida grande','lucida sans unicode',arial,helvetica,sans-serif;text-transform:none;fill:#333;" x="21">Protected</text><rect fill="#50B432"  height="12" width="16" y="4" x="0"></rect></g><g transform="translate(101,3)"  class="highcharts-legend-item"><text  text-anchor="start" style="color:#333;font-size:9pt;font-weight:normal;cursor:pointer;font-family:'lucida grande','lucida sans unicode',arial,helvetica,sans-serif;text-transform:none;fill:#333;" y="15" x="21">Unprotected</text><rect fill="#ED561B"  height="12" width="16" y="4" x="0"></rect></g></g></g></g><g transform="translate(0,-9999)" style="cursor:default;padding:0;white-space:nowrap;"  class="highcharts-tooltip"><path transform="translate(1, 1)" stroke-width="5" stroke-opacity="0.049999999999999996" stroke="black"  d="M 3 0 L 13 0 C 16 0 16 0 16 3 L 16 13 C 16 16 16 16 13 16 L 3 16 C 0 16 0 16 0 13 L 0 3 C 0 0 0 0 3 0" fill="none"></path><path transform="translate(1, 1)" stroke-width="3" stroke-opacity="0.09999999999999999" stroke="black"  d="M 3 0 L 13 0 C 16 0 16 0 16 3 L 16 13 C 16 16 16 16 13 16 L 3 16 C 0 16 0 16 0 13 L 0 3 C 0 0 0 0 3 0" fill="none"></path><path transform="translate(1, 1)" stroke-width="1" stroke-opacity="0.15" stroke="black"  d="M 3 0 L 13 0 C 16 0 16 0 16 3 L 16 13 C 16 16 16 16 13 16 L 3 16 C 0 16 0 16 0 13 L 0 3 C 0 0 0 0 3 0" fill="none"></path><path d="M 3 0 L 13 0 C 16 0 16 0 16 3 L 16 13 C 16 16 16 16 13 16 L 3 16 C 0 16 0 16 0 13 L 0 3 C 0 0 0 0 3 0" fill="rgb(255, 255, 255)" fill-opacity=" 0.85"></path><text y="21" style="font-size:12px;color:#000000;fill:#000000;"  x="8"></text></g></svg>
